# xmcd
#
# Track frame offsets:
#  150
#  12387
#  27504
#  37345
#  48595
#  59038
#  71511
#  83776
#  98184
#  109240
#  122996
#  132477
#  143341
#  155886
#  166378
#  177111
#  189709
#  199151
#  207568
#  215944
#  228326
#  238943
#  249474
#  257409
#  270307
#  280068
#  291367
#  305554
#  317406
#  326863
#
# Disc length: 4502 seconds
#
# Revision: 0
# Processed by: cddbd v1.5.1PL0 Copyright (c) Steve Scherf et al.
# Submitted via: Collectorz.com_Music_Collector 6.9
#
DISCID=db11941e
DTITLE=Various Artist - The Kazaa Download Series - Volume 2
DYEAR=2003
DGENRE=Doo Wop
TTITLE0=Berry Cups and Terry Clinton - Hurt By A Letter
TTITLE1=Blue Dots - You've Got To Live For Yourself
TTITLE2=Bobbie Jean - You Burned the Bridges (answer to Jack Scott)
TTITLE3=Cascades - Cinderella
TTITLE4=Cashmeres - Four LOnely Nights
TTITLE5=Cashmeres - Little Dream Girl
TTITLE6=Cherlos - Cry Fool
TTITLE7=Chestnuts - Mary Hear Those Love Bells
TTITLE8=Centurians - We Mean More To Each Other
TTITLE9=Cashmeres - Last Night
TTITLE10=Cascades - For Your Sweet Love
TTITLE11=Carvells - I Love You So
TTITLE12=Carvells - Daisy
TTITLE13=Carol and the Teens - Once In Love
TTITLE14=Caribbeans - Too Soon
TTITLE15=Capris - Too Poor To Love
TTITLE16=Bravados - Please Stay
TTITLE17=Bonnie and the Treasures - Tell Me In the Sunlight
TTITLE18=Vee, Bobby - Buddy's Song
TTITLE19=Buddy Helms - Borrowed Dreams
TTITLE20=Belvederes - Come To Me Baby
TTITLE21=Bee Jay and Group - I'll Go On
TTITLE22=Becky and the Montclaires - Then You Know It Must Be Love
TTITLE23=Annuals - Once in a Lifetime
TTITLE24=Anne Kay - Every Fortune Teller Tells Me
TTITLE25=Ad Libs - He Ain't No Angel
TTITLE26=Symbols - Lover, Lover, Lover
TTITLE27=Teddy Bears - If You Only Knew
TTITLE28=Jihnny and the Jokers - I Know
TTITLE29=Herrera, Julian and the Tigers - Symbol Of Heaven
EXTD=
EXTT0=
EXTT1=
EXTT2=
EXTT3=
EXTT4=
EXTT5=
EXTT6=
EXTT7=
EXTT8=
EXTT9=
EXTT10=
EXTT11=
EXTT12=
EXTT13=
EXTT14=
EXTT15=
EXTT16=
EXTT17=
EXTT18=
EXTT19=
EXTT20=
EXTT21=
EXTT22=
EXTT23=
EXTT24=
EXTT25=
EXTT26=
EXTT27=
EXTT28=
EXTT29=
PLAYORDER=
